<svg xmlns="http://www.w3.org/2000/svg" xmlns:xlink="http://www.w3.org/1999/xlink" viewBox="0 0 512 512"><path fill="currentColor" d="M 512 360 L 512 24 C 512 10.699219 499.769531 0 484.570312 0 L 109.714844 0 C 49.144531 0 0 43 0 96 L 0 416 C 0 469 49.144531 512 109.714844 512 L 484.570312 512 C 499.769531 512 512 501.300781 512 488 L 512 472 C 512 464.5 508 457.699219 501.828125 453.300781 C 497.027344 437.898438 497.027344 394 501.828125 378.601562 C 508 374.300781 512 367.5 512 360 Z M 146.285156 134 C 146.285156 130.699219 149.371094 128 153.144531 128 L 395.429688 128 C 399.199219 128 402.285156 130.699219 402.285156 134 L 402.285156 154 C 402.285156 157.300781 399.199219 160 395.429688 160 L 153.144531 160 C 149.371094 160 146.285156 157.300781 146.285156 154 Z M 146.285156 198 C 146.285156 194.699219 149.371094 192 153.144531 192 L 395.429688 192 C 399.199219 192 402.285156 194.699219 402.285156 198 L 402.285156 218 C 402.285156 221.300781 399.199219 224 395.429688 224 L 153.144531 224 C 149.371094 224 146.285156 221.300781 146.285156 218 Z M 435.886719 448 L 109.714844 448 C 89.484375 448 73.144531 433.699219 73.144531 416 C 73.144531 398.398438 89.601562 384 109.714844 384 L 435.886719 384 C 433.714844 401.101562 433.714844 430.898438 435.886719 448 Z M 435.886719 448 "/></svg>
