<svg xmlns="http://www.w3.org/2000/svg" xmlns:xlink="http://www.w3.org/1999/xlink" viewBox="0 0 512 512"><path fill="currentColor" d="M 416 448 L 332 448 C 325.398438 448 320 442.601562 320 436 L 320 396 C 320 389.398438 325.398438 384 332 384 L 416 384 C 433.699219 384 448 369.699219 448 352 L 448 160 C 448 142.300781 433.699219 128 416 128 L 332 128 C 325.398438 128 320 122.601562 320 116 L 320 76 C 320 69.398438 325.398438 64 332 64 L 416 64 C 469 64 512 107 512 160 L 512 352 C 512 405 469 448 416 448 Z M 369 247 L 201 79 C 186 64 160 74.5 160 96 L 160 192 L 24 192 C 10.699219 192 0 202.699219 0 216 L 0 312 C 0 325.300781 10.699219 336 24 336 L 160 336 L 160 432 C 160 453.5 186 464 201 449 L 369 281 C 378.300781 271.601562 378.300781 256.398438 369 247 Z M 369 247 "/></svg>