<svg xmlns="http://www.w3.org/2000/svg" xmlns:xlink="http://www.w3.org/1999/xlink" viewBox="0 0 512 512"><path fill="currentColor" d="M 497 273 L 329 441 C 314 456 288 445.5 288 424 L 288 328 L 152 328 C 138.699219 328 128 317.300781 128 304 L 128 208 C 128 194.699219 138.699219 184 152 184 L 288 184 L 288 88 C 288 66.601562 313.898438 56 329 71 L 497 239 C 506.300781 248.398438 506.300781 263.601562 497 273 Z M 192 436 L 192 396 C 192 389.398438 186.601562 384 180 384 L 96 384 C 78.300781 384 64 369.699219 64 352 L 64 160 C 64 142.300781 78.300781 128 96 128 L 180 128 C 186.601562 128 192 122.601562 192 116 L 192 76 C 192 69.398438 186.601562 64 180 64 L 96 64 C 43 64 0 107 0 160 L 0 352 C 0 405 43 448 96 448 L 180 448 C 186.601562 448 192 442.601562 192 436 Z M 192 436 "/></svg>